<svg id="Layer_1" data-name="Layer 1" xmlns="http://www.w3.org/2000/svg" viewBox="0 0 186.78 72.69"><defs><style>.cls-1{fill:#fff;}</style></defs><title>rfa-white</title><rect class="cls-1" x="8.87" y="26.37" width="3" height="9.36"/><rect class="cls-1" x="20.35" y="14.46" width="3" height="21.27"/><rect class="cls-1" x="32.06" y="0.5" width="3" height="35.23"/><rect class="cls-1" y="35.23" width="186.3" height="1"/><path class="cls-1" d="M358.05,256.36a8.44,8.44,0,0,1,5.77,1.82q2.06,1.81,2.06,5.54a8.46,8.46,0,0,1-1.19,4.7,5.59,5.59,0,0,1-3.71,2.34v.08a5.4,5.4,0,0,1,3.25,1.4,5.84,5.84,0,0,1,1.28,3.48c.05.53.1,1.11.12,1.74s.06,1.33.09,2.1q.07,2.28.24,3.48a2.24,2.24,0,0,0,1.07,1.64v.24h-6.42a2.94,2.94,0,0,1-.58-1.38,13.89,13.89,0,0,1-.16-1.62l-.17-5.48a4.4,4.4,0,0,0-.86-2.64,3.25,3.25,0,0,0-2.64-1H353v12.08h-5.94V256.36Zm-2.55,12.48a5,5,0,0,0,3.29-1,4.11,4.11,0,0,0,1.16-3.3c0-2.64-1.38-4-4.12-4H353v8.24Z" transform="translate(-302.45 -255.8)"/><path class="cls-1" d="M386.44,261.08H375.93v6.72h9.89v4.72h-9.89v7.68h10.92v4.72H370V256.36h16.44Z" transform="translate(-302.45 -255.8)"/><path class="cls-1" d="M395.42,276.84a8.53,8.53,0,0,0,.17,1.82,2.88,2.88,0,0,0,1.83,2.26,5,5,0,0,0,1.91.32,3.9,3.9,0,0,0,2.46-.86,3.2,3.2,0,0,0,1.09-2.66,4.62,4.62,0,0,0-.27-1.66,3.17,3.17,0,0,0-.89-1.26,6.45,6.45,0,0,0-1.62-1,23.7,23.7,0,0,0-2.5-.94,22.41,22.41,0,0,1-3.42-1.4,9.37,9.37,0,0,1-2.41-1.78,6.4,6.4,0,0,1-1.42-2.36,9.74,9.74,0,0,1-.45-3.1c0-2.83.81-4.93,2.43-6.32A9.92,9.92,0,0,1,399,255.8a14.93,14.93,0,0,1,3.65.42,7.8,7.8,0,0,1,2.89,1.36,6.5,6.5,0,0,1,1.89,2.4,8.28,8.28,0,0,1,.68,3.5v.8h-5.69a5.54,5.54,0,0,0-.74-3.14,2.76,2.76,0,0,0-2.47-1.1,4.18,4.18,0,0,0-1.65.28,2.76,2.76,0,0,0-1.05.74,2.47,2.47,0,0,0-.53,1.06,5.07,5.07,0,0,0-.15,1.24,4,4,0,0,0,.58,2.22,5.18,5.18,0,0,0,2.47,1.66l4.57,1.92a13.9,13.9,0,0,1,2.76,1.5,7.2,7.2,0,0,1,1.71,1.68,5.37,5.37,0,0,1,.89,2,11.06,11.06,0,0,1,.25,2.4c0,3-.9,5.21-2.7,6.58s-4.31,2.06-7.52,2.06-5.75-.71-7.19-2.12a8.13,8.13,0,0,1-2.16-6.08V276h5.93Z" transform="translate(-302.45 -255.8)"/><path class="cls-1" d="M418.41,276.28a13.36,13.36,0,0,0,.14,2,4.49,4.49,0,0,0,.54,1.56,2.81,2.81,0,0,0,1.07,1,4.08,4.08,0,0,0,3.44,0,2.83,2.83,0,0,0,1-1,4.49,4.49,0,0,0,.54-1.56,13.36,13.36,0,0,0,.14-2V256.36h5.93v19.92a11.28,11.28,0,0,1-.78,4.5,7.12,7.12,0,0,1-2.1,2.82,7.25,7.25,0,0,1-3,1.4,16.69,16.69,0,0,1-3.5.36,19.06,19.06,0,0,1-3.5-.32,7.22,7.22,0,0,1-3-1.3,6.64,6.64,0,0,1-2.1-2.78,11.89,11.89,0,0,1-.78-4.68V256.36h5.93Z" transform="translate(-302.45 -255.8)"/><path class="cls-1" d="M435.84,256.36h5.93V280.2h10.51v4.72H435.84Z" transform="translate(-302.45 -255.8)"/><path class="cls-1" d="M468.26,261.08h-6.43v23.84H455.9V261.08h-6.43v-4.72h18.79Z" transform="translate(-302.45 -255.8)"/><path class="cls-1" d="M475.59,276.84a9.23,9.23,0,0,0,.17,1.82,2.93,2.93,0,0,0,1.83,2.26,5.06,5.06,0,0,0,1.92.32,3.89,3.89,0,0,0,2.45-.86,3.17,3.17,0,0,0,1.09-2.66,4.62,4.62,0,0,0-.27-1.66,3.25,3.25,0,0,0-.88-1.26,6.53,6.53,0,0,0-1.63-1,22.63,22.63,0,0,0-2.49-.94,21.59,21.59,0,0,1-3.42-1.4,9.2,9.2,0,0,1-2.41-1.78,6.27,6.27,0,0,1-1.42-2.36,9.45,9.45,0,0,1-.46-3.1c0-2.83.81-4.93,2.43-6.32a9.93,9.93,0,0,1,6.68-2.08,14.85,14.85,0,0,1,3.64.42,7.66,7.66,0,0,1,2.89,1.36,6.4,6.4,0,0,1,1.89,2.4,8.13,8.13,0,0,1,.68,3.5v.8H482.6a5.63,5.63,0,0,0-.74-3.14,2.78,2.78,0,0,0-2.48-1.1,4.16,4.16,0,0,0-1.64.28,2.76,2.76,0,0,0-1.05.74,2.49,2.49,0,0,0-.54,1.06,5.07,5.07,0,0,0-.14,1.24,4.07,4.07,0,0,0,.57,2.22,5.23,5.23,0,0,0,2.47,1.66l4.58,1.92a14.5,14.5,0,0,1,2.76,1.5,7.59,7.59,0,0,1,1.71,1.68,5.52,5.52,0,0,1,.88,2,10.47,10.47,0,0,1,.25,2.4c0,3-.9,5.21-2.7,6.58s-4.3,2.06-7.52,2.06-5.74-.71-7.19-2.12a8.13,8.13,0,0,1-2.16-6.08V276h5.93Z" transform="translate(-302.45 -255.8)"/><path class="cls-1" d="M362.37,300.22l7.29,27.84h-5.79l-1.27-5.89h-7.34L354,328.06H348.2l7.29-27.84Zm-.74,17.35L359,305.05h-.08l-2.66,12.52Z" transform="translate(-302.45 -255.8)"/><path class="cls-1" d="M380,300.22l3.94,19.65H384l4-19.65h8.23v27.84h-5.1V305.83H391l-4.9,22.23h-4.32l-4.91-22.23h-.07v22.23h-5.1V300.22Z" transform="translate(-302.45 -255.8)"/><path class="cls-1" d="M415.57,304.82h-9.85v6.55H415V316h-9.27v7.49H416v4.6h-15.8V300.22h15.41Z" transform="translate(-302.45 -255.8)"/><path class="cls-1" d="M429,300.22a7.71,7.71,0,0,1,5.4,1.77q1.93,1.78,1.93,5.4a8.46,8.46,0,0,1-1.12,4.59,5.2,5.2,0,0,1-3.47,2.28v.08a5,5,0,0,1,3.05,1.36,5.8,5.8,0,0,1,1.19,3.39c.05.52.09,1.09.12,1.7s.05,1.29.08,2c.05,1.48.13,2.61.23,3.39a2.19,2.19,0,0,0,1,1.6v.23h-6a3.11,3.11,0,0,1-.54-1.34,13.43,13.43,0,0,1-.15-1.58l-.16-5.35a4.41,4.41,0,0,0-.81-2.57,3,3,0,0,0-2.47-.93h-3v11.77h-5.55V300.22Zm-2.4,12.16a4.5,4.5,0,0,0,3.09-.95,4.12,4.12,0,0,0,1.08-3.22q0-3.85-3.86-3.86h-2.63v8Z" transform="translate(-302.45 -255.8)"/><path class="cls-1" d="M439.7,300.22h5.56v27.84H439.7Z" transform="translate(-302.45 -255.8)"/><path class="cls-1" d="M459.68,305.19a2.66,2.66,0,0,0-2.61-1.38,2.55,2.55,0,0,0-1.71.56,3.81,3.81,0,0,0-1.07,1.83,16.85,16.85,0,0,0-.54,3.32q-.15,2-.15,5a49.69,49.69,0,0,0,.21,5.11,11.14,11.14,0,0,0,.66,3,2.75,2.75,0,0,0,1.12,1.45,3.27,3.27,0,0,0,1.56.37,3.63,3.63,0,0,0,1.37-.26,2.34,2.34,0,0,0,1.1-1,6.6,6.6,0,0,0,.74-2.15,19.74,19.74,0,0,0,.27-3.64h5.56a25.61,25.61,0,0,1-.35,4.29,9.81,9.81,0,0,1-1.29,3.55,6.43,6.43,0,0,1-2.67,2.37,9.87,9.87,0,0,1-4.46.86,10.5,10.5,0,0,1-5-1,6.87,6.87,0,0,1-2.84-2.93,13,13,0,0,1-1.27-4.56,58.95,58.95,0,0,1,0-11.68,13.06,13.06,0,0,1,1.27-4.58,7.24,7.24,0,0,1,2.84-3,10,10,0,0,1,5-1.07,9.51,9.51,0,0,1,4.69,1,6.52,6.52,0,0,1,2.57,2.47,8.54,8.54,0,0,1,1.06,3.24,27.31,27.31,0,0,1,.22,3.26H460.4A10.13,10.13,0,0,0,459.68,305.19Z" transform="translate(-302.45 -255.8)"/><path class="cls-1" d="M480.82,300.22l7.3,27.84h-5.79l-1.28-5.89h-7.34l-1.27,5.89h-5.79l7.3-27.84Zm-.73,17.35-2.67-12.52h-.07l-2.67,12.52Z" transform="translate(-302.45 -255.8)"/><polygon class="cls-1" points="10.09 43.31 11.24 45.65 13.82 46.02 11.95 47.84 12.39 50.41 10.09 49.2 7.78 50.41 8.22 47.84 6.35 46.02 8.93 45.65 10.09 43.31"/><polygon class="cls-1" points="21.9 43.31 23.05 45.65 25.64 46.02 23.77 47.84 24.21 50.41 21.9 49.2 19.59 50.41 20.03 47.84 18.17 46.02 20.75 45.65 21.9 43.31"/><polygon class="cls-1" points="33.71 43.31 34.86 45.65 37.44 46.02 35.58 47.84 36.02 50.41 33.71 49.2 31.4 50.41 31.84 47.84 29.97 46.02 32.55 45.65 33.71 43.31"/><path class="cls-1" d="M317.36,313.78v2.36h-5.1v3.36h4.8v2.36h-4.8v6.2h-2.88V313.78Z" transform="translate(-302.45 -255.8)"/><path class="cls-1" d="M319.69,317.93a6.69,6.69,0,0,1,.66-2.35,3.73,3.73,0,0,1,1.47-1.53,6.33,6.33,0,0,1,5.16,0,3.73,3.73,0,0,1,1.47,1.53,6.69,6.69,0,0,1,.66,2.35,27.67,27.67,0,0,1,.15,3,27.33,27.33,0,0,1-.15,3,6.57,6.57,0,0,1-.66,2.34,3.44,3.44,0,0,1-1.47,1.5,6.66,6.66,0,0,1-5.16,0,3.44,3.44,0,0,1-1.47-1.5,6.57,6.57,0,0,1-.66-2.34,27.33,27.33,0,0,1-.15-3A27.67,27.67,0,0,1,319.69,317.93Zm2.8,5.44a6.43,6.43,0,0,0,.28,1.64,1.81,1.81,0,0,0,.6.92,1.64,1.64,0,0,0,1,.29,1.65,1.65,0,0,0,1-.29,1.81,1.81,0,0,0,.6-.92,6.91,6.91,0,0,0,.28-1.64c0-.67.07-1.49.07-2.45s0-1.77-.07-2.44a7.2,7.2,0,0,0-.28-1.64,1.88,1.88,0,0,0-.6-.93,1.72,1.72,0,0,0-1-.29,1.7,1.7,0,0,0-1,.29,1.88,1.88,0,0,0-.6.93,6.69,6.69,0,0,0-.28,1.64c-.05.67-.07,1.48-.07,2.44S322.44,322.7,322.49,323.37Z" transform="translate(-302.45 -255.8)"/><path class="cls-1" d="M337.48,313.78a4,4,0,0,1,2.8.91,3.59,3.59,0,0,1,1,2.77,4.35,4.35,0,0,1-.58,2.35,2.68,2.68,0,0,1-1.8,1.17v0a2.65,2.65,0,0,1,1.58.7,3,3,0,0,1,.62,1.74q0,.41.06.87c0,.32,0,.67,0,1.05a15.32,15.32,0,0,0,.12,1.74,1.1,1.1,0,0,0,.52.82v.12h-3.12a1.51,1.51,0,0,1-.28-.69,6.94,6.94,0,0,1-.08-.81l-.08-2.74a2.3,2.3,0,0,0-.42-1.32,1.55,1.55,0,0,0-1.28-.48H335v6h-2.88V313.78ZM336.24,320a2.36,2.36,0,0,0,1.6-.49,2.09,2.09,0,0,0,.56-1.65,1.76,1.76,0,0,0-2-2H335V320Z" transform="translate(-302.45 -255.8)"/></svg>